<svg xmlns="http://www.w3.org/2000/svg" width="130.9" height="100.379" viewBox="0 0 130.9 100.379">
    <defs>
        <style>
            .cls-1{fill:#006faf}.cls-2{fill:#00ccbc}
        </style>
    </defs>
    <g id="Group_560" data-name="Group 560" transform="translate(-115.049 -57.834)">
        <g id="Group_54" data-name="Group 54" transform="translate(824.049 -7983.098)">
            <path id="Path_667" d="M208.769 213.423l6.12-6.243c.463.526.832 1.01 1.265 1.428a2.518 2.518 0 0 0 3.833-.015q5.786-5.754 11.538-11.543a2.515 2.515 0 0 0-.013-3.836q-5.75-5.79-11.539-11.542a2.52 2.52 0 0 0-3.84.017q-5.788 5.752-11.537 11.543a2.55 2.55 0 0 0 .019 3.842c.413.431.841.848 1.268 1.277l-6.278 6.061-3.12-3.094-3.378 3.366-6.25-6.087c.536-.542 1.008-1.011 1.471-1.49a2.566 2.566 0 0 0 .014-3.914q-5.717-5.752-11.467-11.472a2.541 2.541 0 0 0-3.912-.011q-5.752 5.718-11.468 11.471a2.536 2.536 0 0 0-.007 3.91q5.719 5.751 11.467 11.471a2.546 2.546 0 0 0 3.909.013c.411-.394.8-.811 1.171-1.188l6.143 6.185c-.1.114-.3.341-.5.551-1.73 1.736-3.509 3.427-5.185 5.215a4.788 4.788 0 0 1-7.191-.026q-10.186-10.329-20.514-20.519a4.857 4.857 0 0 1-.031-7.272q10.359-10.227 20.582-20.593a4.869 4.869 0 0 1 7.132-.019c5.673 5.772 11.428 11.463 17.144 17.192a11.068 11.068 0 0 1 .746.934c.39-.364.658-.6.908-.848q8.62-8.619 17.234-17.244a4.915 4.915 0 0 1 3.045-1.608 4.717 4.717 0 0 1 3.988 1.517q4.79 4.827 9.611 9.623l10.968 10.973c.143.142.288.282.427.428a4.55 4.55 0 0 1 0 6.518c-1.232 1.284-2.51 2.523-3.769 3.782q-8.583 8.585-17.163 17.174a4.877 4.877 0 0 1-3.345 1.634 4.327 4.327 0 0 1-3.307-1.222c-2.042-1.993-4.043-4.03-6.058-6.051a1.326 1.326 0 0 1-.131-.288z" class="cls-1" data-name="Path 667" transform="translate(-839.944 7871.625)"/>
            <path id="Path_668" d="M223.281 221.016l6.183 5.935c-.4.414-.752.794-1.116 1.166a2.7 2.7 0 0 0 .025 4.3c3.726 3.728 7.48 7.429 11.165 11.2a2.85 2.85 0 0 0 4.169 0c2.349-2.444 4.828-4.763 7.235-7.151 1.382-1.371 2.7-2.811 4.1-4.155a2.771 2.771 0 0 0-.019-4.1c-.383-.327-.784-.632-1.243-1l6.153-6.3c.234.209.411.353.572.514 1.83 1.826 3.665 3.648 5.483 5.486a4.446 4.446 0 0 1-.007 6.7c-2.583 2.592-5.2 5.145-7.789 7.736q-6.544 6.561-13.059 13.151a4.735 4.735 0 0 1-3.569 1.569 4.192 4.192 0 0 1-3-1.206c-2.5-2.48-4.963-5.007-7.455-7.5-2.349-2.35-4.722-4.676-7.077-7.021-2.332-2.322-4.684-4.624-6.97-6.99a4.257 4.257 0 0 1-.186-5.94c2.075-2.244 4.315-4.325 6.405-6.394z" class="cls-2" data-name="Path 668" transform="translate(-885.153 7836.613)"/>
            <path id="Path_669" d="M330.105 393.816a19.258 19.258 0 0 1 5.594.072v4.075c0 .4-.017.8 0 1.2a18.233 18.233 0 0 1-.531 5.587 5.665 5.665 0 0 1-3.481 3.909 8.2 8.2 0 0 1-3.238.633q-5.137-.015-10.275 0a11.371 11.371 0 0 0-1.4.138 1.839 1.839 0 0 0-1.7 1.718 10.8 10.8 0 0 0-.01 2.606 1.86 1.86 0 0 0 1.9 1.741 14.888 14.888 0 0 0 1.809.078q12.038.007 24.075 0c1.468 0 1.47 0 1.471 1.43 0 1.108.015 2.217-.006 3.324-.015.769-.108.854-.892.865-1.108.016-2.216 0-3.324 0-7.589 0-15.177.013-22.765-.025a17.085 17.085 0 0 1-3.281-.417 5.483 5.483 0 0 1-4.208-3.921 9.514 9.514 0 0 1-.458-2.864 30.4 30.4 0 0 1 .205-4.52 5.927 5.927 0 0 1 3.7-5.114 10.651 10.651 0 0 1 3.951-.658h4.835q2.669-.013 5.337-.048a7.062 7.062 0 0 0 .9-.078 1.744 1.744 0 0 0 1.578-1.585 11.15 11.15 0 0 0 .134-1.7c.015-1.813 0-3.626.005-5.439.009-.316.051-.646.075-1.007z" class="cls-1" data-name="Path 669" transform="translate(-948.684 7719.395)"/>
            <path id="Path_670" d="M403.421 370.215v-8.764-.705a.549.549 0 0 1 .625-.611h4.231c.474 0 .661.257.682.685.013.268.01.537.009.806l-.018 15.916v.1c.072.822-.1 1.756.655 2.333a4.722 4.722 0 0 0 2.975.742c.244 0 .524-.263.727-.465 1.951-1.939 3.887-3.893 5.831-5.84.687-.688 1.359-1.395 2.079-2.048a2.428 2.428 0 0 1 3.6.07q4.4 4.361 8.761 8.762a2.437 2.437 0 0 1 .018 3.6q-4.355 4.406-8.761 8.762a2.472 2.472 0 0 1-3.749-.049q-3.191-3.148-6.335-6.344a2.3 2.3 0 0 0-1.829-.8 14.159 14.159 0 0 1-5.141-.813c-3.164-1.152-4.257-2.961-4.344-6.27-.079-3.022-.016-6.045-.016-9.067zM428.633 383a3.188 3.188 0 0 0-.374-.634 359.81 359.81 0 0 0-4.626-4.62c-.465-.453-.838-.426-1.316.018-.515.479-1 .991-1.5 1.488-1 1-2 1.983-2.984 2.991-.531.544-.572.922-.117 1.386q2.289 2.331 4.622 4.619c.476.465.828.452 1.313-.024a375.37 375.37 0 0 0 4.548-4.552 3.871 3.871 0 0 0 .434-.672z" class="cls-1" data-name="Path 670" transform="translate(-1012.481 7742.138)"/>
            <path id="Path_671" d="M126.394 401.9c0 2.149.022 4.3 0 6.449a12.618 12.618 0 0 1-8.339 11.932 12.152 12.152 0 0 1-4.342.749c-3.056.006-6.114.046-9.169-.009a11.433 11.433 0 0 1-10.718-6.575 12.837 12.837 0 0 1-1.248-5.555c-.045-1.578-.024-3.157-.011-4.736.007-.87.133-.993.99-1a131.62 131.62 0 0 1 3.325 0c.959.01 1.042.091 1.049 1.031.01 1.276 0 2.553 0 3.829 0 4.417 2.361 7.129 6.758 7.376a84.2 84.2 0 0 0 9.863-.048 6.659 6.659 0 0 0 5.72-3.741 6.882 6.882 0 0 0 .554-3.243c.015-4.434.006-8.867.006-13.3 0-.235-.007-.471 0-.706.033-.781.123-.9.866-.906q1.914-.027 3.829 0c.759.012.859.118.863.9.012 2.519 0 5.038 0 7.557z" class="cls-1" data-name="Path 671" transform="translate(-801.546 7719.541)"/>
            <path id="Path_672" d="M210.2 360.354h5.376a9.863 9.863 0 0 1 .1.989q0 8.059-.012 16.118c0 .4.028.8.041 1.207a1.877 1.877 0 0 0 1.678 1.953 26.022 26.022 0 0 0 3.59.4c2.08.064 4.163.029 6.245.01a12.659 12.659 0 0 0 1.7-.166 1.576 1.576 0 0 0 1.417-1.365 10.621 10.621 0 0 0 .206-1.792c.026-1.88 0-3.761.012-5.641 0-1 .078-1.069 1.1-1.075 1.209-.007 2.418-.015 3.627 0 .823.013.923.114.922.947-.005 2.518.049 5.04-.079 7.552a10.908 10.908 0 0 1-.779 3.506c-.849 2.075-2.647 3.039-4.758 3.459a10.128 10.128 0 0 1-1.9.168c-2.72.019-5.44.034-8.16 0a17.151 17.151 0 0 1-6.6-1.143 5.733 5.733 0 0 1-3.725-5.164c-.042-.5-.062-1.005-.063-1.508q-.006-8.613 0-17.227c.008-.382.042-.771.062-1.228z" class="cls-1" data-name="Path 672" transform="translate(-881.344 7741.987)"/>
            <path id="Path_673" d="M286.345 176.942l-6.054 6.168c-.368-.361-.721-.66-1.019-1.005a2.732 2.732 0 0 0-4.36.032c-.281.333-.533.692-.87 1.132l-6.034-6.364a1.644 1.644 0 0 1 .179-.3c1.942-1.948 3.856-3.925 5.841-5.829a4.358 4.358 0 0 1 6.106-.036c2.085 1.989 4.084 4.069 6.211 6.202z" class="cls-2" data-name="Path 673" transform="translate(-920.609 7871.489)"/>
            <path id="Path_674" d="M351.227 364.71a6.287 6.287 0 0 1-.65 1.141c-.6.672-1.251 1.3-1.91 1.922a1.57 1.57 0 0 1-2.4.014c-.66-.617-1.3-1.258-1.917-1.916a1.551 1.551 0 0 1-.021-2.395c.641-.683 1.3-1.349 1.99-1.985a1.548 1.548 0 0 1 2.254-.026 28.449 28.449 0 0 1 2.052 2.064 5.408 5.408 0 0 1 .602 1.181z" class="cls-1" data-name="Path 674" transform="translate(-972.022 7741.554)"/>
            <path id="Path_675" d="M253.816 462.378a6.332 6.332 0 0 1-.655 1.169c-.6.674-1.248 1.308-1.911 1.921a1.6 1.6 0 0 1-2.482-.01 32.335 32.335 0 0 1-1.9-1.931 1.553 1.553 0 0 1 .012-2.324q.958-1.028 1.987-1.989a1.535 1.535 0 0 1 2.318.024 32.77 32.77 0 0 1 1.98 2 6.221 6.221 0 0 1 .651 1.14z" class="cls-1" data-name="Path 675" transform="translate(-905.914 7675.253)"/>
            <path id="Path_676" d="M140.009 394.5a5.062 5.062 0 0 1-.569 1.079c-.649.719-1.34 1.4-2.048 2.065a1.566 1.566 0 0 1-2.326 0 37.181 37.181 0 0 1-1.986-1.985 1.53 1.53 0 0 1 .025-2.318c.639-.683 1.3-1.347 1.986-1.985a1.528 1.528 0 0 1 2.316 0 30.447 30.447 0 0 1 1.976 1.993 5.746 5.746 0 0 1 .626 1.151z" class="cls-1" data-name="Path 676" transform="translate(-828.7 7721.312)"/>
        </g>
    </g>
</svg>
